<?xml version="1.0" encoding="UTF-8"?>
<svg id="Layer_1" xmlns="http://www.w3.org/2000/svg" viewBox="0 0 50 50">
  <defs>
    <style>
      .cls-1 {
        fill: #f3efe8;
      }

      .cls-2 {
        fill: #222221;
      }
    </style>
  </defs>
  <circle class="cls-1" cx="25" cy="25" r="23.93"/>
  <g>
    <path class="cls-2" d="M21.66,36.1H5.37v-4.56l9.9-13.14H5.67v-4.5h15.69v4.35l-10.05,13.35h10.35v4.5Z"/>
    <path class="cls-2" d="M34.17,36.46c-2.22,0-4.14-.46-5.76-1.39-1.62-.93-2.87-2.25-3.75-3.96-.88-1.71-1.32-3.74-1.32-6.08s.46-4.34,1.38-6.06c.92-1.72,2.21-3.06,3.87-4s3.59-1.43,5.79-1.43c1.86,0,3.51.34,4.96,1,1.45.67,2.63,1.62,3.55,2.83.92,1.22,1.49,2.66,1.71,4.32h-5.13c-.32-1.12-.93-1.98-1.84-2.58s-2.04-.9-3.38-.9c-1.2,0-2.24.27-3.11.81-.87.54-1.54,1.31-1.99,2.32-.46,1.01-.69,2.23-.69,3.65s.24,2.58.71,3.6c.47,1.02,1.14,1.8,2.01,2.35.87.55,1.89.83,3.08.83,1.36,0,2.51-.31,3.46-.95.95-.63,1.58-1.49,1.88-2.59h5.04c-.26,1.64-.87,3.08-1.81,4.32-.95,1.24-2.17,2.2-3.65,2.88-1.48.68-3.15,1.02-5.01,1.02Z"/>
  </g>
</svg>