<?xml version="1.0" encoding="UTF-8"?>
<svg id="Layer_1" xmlns="http://www.w3.org/2000/svg" viewBox="0 0 50 50">
  <defs>
    <style>
      .cls-1 {
        fill: #f3efe8;
      }

      .cls-2 {
        fill: #222221;
      }
    </style>
  </defs>
  <circle class="cls-1" cx="25" cy="25" r="23.93"/>
  <g>
    <path class="cls-2" d="M21.96,35.09H7.15v-4.15l9-11.95H7.42v-4.09h14.27v3.96l-9.14,12.14h9.41v4.09Z"/>
    <path class="cls-2" d="M33.34,35.42c-2.02,0-3.76-.42-5.24-1.26s-2.61-2.05-3.41-3.6-1.2-3.4-1.2-5.53.42-3.95,1.25-5.51,2.01-2.78,3.52-3.64,3.26-1.3,5.26-1.3c1.69,0,3.19.31,4.51.91,1.32.61,2.39,1.47,3.23,2.57.84,1.11,1.35,2.42,1.55,3.93h-4.66c-.29-1.02-.85-1.8-1.67-2.35s-1.85-.82-3.07-.82c-1.09,0-2.04.25-2.83.74-.79.49-1.4,1.19-1.81,2.11-.42.92-.63,2.03-.63,3.32s.22,2.35.65,3.27,1.04,1.64,1.83,2.14c.79.5,1.72.75,2.8.75,1.24,0,2.28-.28,3.15-.86.86-.57,1.44-1.35,1.71-2.35h4.58c-.24,1.49-.79,2.8-1.65,3.93-.86,1.13-1.97,2-3.32,2.62s-2.86.93-4.56.93h0Z"/>
  </g>
</svg>